<svg width="26" height="22" viewBox="0 0 26 22" fill="none" xmlns="http://www.w3.org/2000/svg">
<path fill-rule="evenodd" clip-rule="evenodd" d="M22.4963 6.3999V2.8824H18.3926L15.4963 0.399902L12.6001 2.8824H8.49635V6.3999L5.6001 8.8824L8.49635 11.3649V14.8824H12.6001L15.4963 17.3649L18.3926 14.8824H22.4963V11.3649L25.3926 8.8824L22.4963 6.3999ZM20.7464 10.7424V13.3824H17.6664L15.4964 15.2424L13.3264 13.3824H10.2464V10.7424L8.07636 8.88241L10.2464 7.02241V4.38241H13.3264L15.4964 2.52241L17.6664 4.38241H20.7464V7.02241L22.9164 8.88241L20.7464 10.7424ZM10.2464 8.88241C10.2464 6.39991 12.6001 4.38241 15.4964 4.38241C18.3926 4.38241 20.7464 6.39991 20.7464 8.88241C20.7464 11.3649 18.3926 13.3824 15.4964 13.3824C12.6001 13.3824 10.2464 11.3649 10.2464 8.88241ZM15.4963 11.8824C13.5626 11.8824 11.9963 10.5399 11.9963 8.88239C11.9963 7.22489 13.5626 5.88239 15.4963 5.88239C17.4301 5.88239 18.9963 7.22489 18.9963 8.88239C18.9963 10.5399 17.4301 11.8824 15.4963 11.8824ZM13.3088 8.8824C13.3088 7.84687 14.2882 7.0074 15.4963 7.0074C16.7045 7.0074 17.6838 7.84687 17.6838 8.8824C17.6838 9.91794 16.7045 10.7574 15.4963 10.7574C14.2882 10.7574 13.3088 9.91794 13.3088 8.8824Z" fill="black" fill-opacity="0.54"/>
</svg>
