<svg width="26" height="23" viewBox="0 0 26 23" fill="none" xmlns="http://www.w3.org/2000/svg">
<g id="people_24px">
<path id="icon/social/people_24px" fill-rule="evenodd" clip-rule="evenodd" d="M9.44822 11.5C11.4586 11.5 13.0941 9.99544 13.0941 8.14585C13.0941 6.29627 11.4586 4.79169 9.44822 4.79169C7.4378 4.79169 5.80239 6.29627 5.80239 8.14585C5.80239 9.99544 7.4378 11.5 9.44822 11.5ZM2.15656 16.5313C2.15656 14.2984 7.01072 13.1771 9.44822 13.1771C11.8857 13.1771 16.7399 14.2984 16.7399 16.5313V18.2084H2.15656V16.5313ZM9.44822 15.0938C7.58364 15.0938 5.46905 15.7359 4.59405 16.2917H14.3024C13.4274 15.7359 11.3128 15.0938 9.44822 15.0938ZM11.0107 8.14586C11.0107 7.35044 10.3128 6.70836 9.44822 6.70836C8.58364 6.70836 7.88572 7.35044 7.88572 8.14586C7.88572 8.94127 8.58364 9.58336 9.44822 9.58336C10.3128 9.58336 11.0107 8.94127 11.0107 8.14586ZM16.7816 13.2346C17.9899 14.0396 18.8232 15.1129 18.8232 16.5313V18.2084H22.9899V16.5313C22.9899 14.5954 19.3441 13.4934 16.7816 13.2346ZM19.3441 8.14585C19.3441 9.99544 17.7086 11.5 15.6982 11.5C15.1357 11.5 14.6149 11.3754 14.1357 11.1646C14.792 10.3117 15.1774 9.2671 15.1774 8.14585C15.1774 7.0246 14.792 5.98002 14.1357 5.1271C14.6149 4.91627 15.1357 4.79169 15.6982 4.79169C17.7086 4.79169 19.3441 6.29627 19.3441 8.14585Z" fill="black" fill-opacity="0.54"/>
</g>
</svg>
