<svg width="19" height="18" viewBox="0 0 19 18" fill="none" xmlns="http://www.w3.org/2000/svg">
<path fill-rule="evenodd" clip-rule="evenodd" d="M9.49984 3C7.75025 3 6.33317 4.3425 6.33317 6C6.33317 7.6575 7.75025 9 9.49984 9C11.2494 9 12.6665 7.6575 12.6665 6C12.6665 4.3425 11.2494 3 9.49984 3ZM11.0832 6.00001C11.0832 5.17501 10.3707 4.50001 9.49984 4.50001C8.629 4.50001 7.9165 5.17501 7.9165 6.00001C7.9165 6.82501 8.629 7.50001 9.49984 7.50001C10.3707 7.50001 11.0832 6.82501 11.0832 6.00001ZM14.2498 13.5C14.0915 12.9675 11.6373 12 9.49984 12C7.37025 12 4.93192 12.96 4.74984 13.5H14.2498ZM3.1665 13.5C3.1665 11.505 7.38609 10.5 9.49984 10.5C11.6136 10.5 15.8332 11.505 15.8332 13.5V15H3.1665V13.5Z" fill="black" fill-opacity="0.54"/>
</svg>
