<svg width="15" height="14" viewBox="0 0 15 14" fill="none" xmlns="http://www.w3.org/2000/svg">
<path fill-rule="evenodd" clip-rule="evenodd" d="M7.5 1.98914C5.08125 1.98914 3.125 3.68455 3.125 5.7808C3.125 8.62455 7.5 12.8225 7.5 12.8225C7.5 12.8225 11.875 8.62455 11.875 5.7808C11.875 3.68455 9.91875 1.98914 7.5 1.98914ZM4.375 5.7808C4.375 4.2858 5.775 3.07247 7.5 3.07247C9.225 3.07247 10.625 4.2858 10.625 5.7808C10.625 7.3408 8.825 9.67539 7.5 11.1325C6.2 9.68622 4.375 7.32455 4.375 5.7808ZM5.9375 5.7808C5.9375 5.03292 6.63706 4.42664 7.5 4.42664C8.05823 4.42664 8.57405 4.68474 8.85317 5.10372C9.13228 5.5227 9.13228 6.03891 8.85317 6.45789C8.57405 6.87687 8.05823 7.13497 7.5 7.13497C6.63706 7.13497 5.9375 6.52869 5.9375 5.7808Z" fill="black" fill-opacity="0.54"/>
</svg>
