<svg width="12" height="11" viewBox="0 0 12 11" fill="none" xmlns="http://www.w3.org/2000/svg">
<g id="youtube_searched_for_24px">
<path id="icon/action/youtube_searched_for_24px" d="M8.50733 6.53581H8.1332L8.00694 6.41206C8.46524 5.88956 8.74116 5.21581 8.74116 4.47331C8.74116 2.82789 7.38028 1.49414 5.70139 1.49414C4.0225 1.49414 2.66161 2.86914 2.66161 4.47331H1.48779L3.2836 6.30664L5.22905 4.47331H3.59693C3.59693 3.32747 4.5416 2.41081 5.70139 2.41081C6.86118 2.41081 7.80584 3.33206 7.80584 4.47331C7.80584 5.60997 6.86118 6.53581 5.70139 6.53581C5.39741 6.53581 5.11214 6.47164 4.85025 6.36164L4.15812 7.03997C4.61174 7.30122 5.13552 7.45247 5.70139 7.45247C6.45431 7.45247 7.14177 7.18206 7.6749 6.73289L7.80117 6.85664V7.21872L10.1441 9.50581L10.8409 8.82747L8.50733 6.53581Z" fill="black" fill-opacity="0.54"/>
</g>
</svg>
